<?xml version="1.0" encoding="iso-8859-1"?>
<!-- Uploaded to: SVG Repo, www.svgrepo.com, Transformed by: SVG Repo Mixer Tools -->
<svg fill="#000000" height="800px" width="800px" version="1.1" id="Layer_1" xmlns="http://www.w3.org/2000/svg" xmlns:xlink="http://www.w3.org/1999/xlink" 
	 viewBox="0 0 512 512" xml:space="preserve">
<g>
	<g>
		<polygon points="457.57,158.547 411.388,149.62 388.621,108.453 365.857,149.62 319.673,158.547 351.786,192.921 346.003,239.606 
			388.621,219.681 431.24,239.606 425.457,192.921 		"/>
	</g>
</g>
<g>
	<g>
		<polygon points="401.643,331.424 369.891,325.288 354.241,296.985 338.59,325.288 306.84,331.424 328.918,355.058 324.94,387.153 
			354.241,373.452 383.539,387.153 379.565,355.058 		"/>
	</g>
</g>
<g>
	<g>
		<path d="M204.914,255.998c0-104.784,65.545-194.245,157.867-229.661C329.818,10.669,292.97,1.892,254.108,1.892
			C113.991,1.892,0,115.883,0,256s113.991,254.108,254.108,254.108c38.864,0,75.711-8.777,108.676-24.447
			C270.463,450.247,204.914,360.784,204.914,255.998z M49.182,256c0-107.521,83.239-195.967,188.658-204.287
			C227.387,62.63,217.725,74.4,208.938,86.948c-34.808,49.718-53.205,108.175-53.205,169.051s18.399,119.334,53.207,169.052
			c8.786,12.55,18.452,24.319,28.904,35.236C132.423,451.966,49.182,363.521,49.182,256z"/>
	</g>
</g>
<g>
	<g>
		<polygon points="512,284.176 486.022,279.157 473.216,256 460.413,279.157 434.431,284.176 452.498,303.513 449.243,329.773 
			473.216,318.565 497.186,329.773 493.937,303.513 		"/>
	</g>
</g>
</svg>