<?xml version="1.0" encoding="iso-8859-1"?>
<!-- Generator: Adobe Illustrator 19.0.0, SVG Export Plug-In . SVG Version: 6.00 Build 0)  -->
<svg version="1.1" id="Layer_1" xmlns="http://www.w3.org/2000/svg" xmlns:xlink="http://www.w3.org/1999/xlink" x="0px" y="0px"
	 viewBox="0 0 386.623 386.623" style="enable-background:new 0 0 386.623 386.623;" xml:space="preserve">
<g>
	<g>
		<path d="M345.102,189.679c-0.513-36.41-30.292-65.869-66.821-65.869c-8.241,0-16.416,1.537-24.063,4.489
			c-5.885-17.846-16.907-33.862-31.645-45.778c-17.406-14.072-39.341-21.822-61.765-21.822c-52.787,0-95.992,41.821-98.223,94.069
			c-16.8,4.977-31.924,15.034-43.061,28.742C6.934,199.007,0,218.556,0,238.558c0,48.174,39.191,87.366,87.365,87.366H315.23
			c39.366,0,71.392-32.027,71.393-71.394C386.623,226.651,370.146,201.242,345.102,189.679z M315.23,310.923H87.365
			C47.463,310.923,15,278.46,15,238.558c0-16.567,5.741-32.757,16.167-45.588c10.282-12.655,24.655-21.554,40.47-25.058
			c3.481-0.771,5.937-3.885,5.877-7.448l-0.004-0.247c-0.007-0.4-0.015-0.801-0.015-1.203c0-45.939,37.374-83.314,83.313-83.314
			c19.278,0,37.375,6.393,52.334,18.487c14.537,11.752,24.806,28.201,28.914,46.315c0.524,2.306,2.104,4.231,4.265,5.193
			c2.163,0.962,4.649,0.848,6.713-0.308c7.686-4.302,16.417-6.576,25.247-6.576c28.578,0,51.828,23.25,51.828,51.828
			c0,1.038-0.042,2.144-0.131,3.482c-0.221,3.311,1.762,6.375,4.873,7.53c21.994,8.165,36.771,29.415,36.771,52.88
			C371.622,285.626,346.325,310.923,315.23,310.923z"/>
	</g>
</g>
<g>
</g>
<g>
</g>
<g>
</g>
<g>
</g>
<g>
</g>
<g>
</g>
<g>
</g>
<g>
</g>
<g>
</g>
<g>
</g>
<g>
</g>
<g>
</g>
<g>
</g>
<g>
</g>
<g>
</g>
</svg>
