<?xml version="1.0" encoding="iso-8859-1"?>
<!-- Generator: Adobe Illustrator 19.0.0, SVG Export Plug-In . SVG Version: 6.00 Build 0)  -->
<svg version="1.1" id="Layer_1" xmlns="http://www.w3.org/2000/svg" xmlns:xlink="http://www.w3.org/1999/xlink" x="0px" y="0px"
	 viewBox="0 0 489 489" style="enable-background:new 0 0 489 489;" xml:space="preserve">
<g transform="translate(0 -540.36)">
	<g>
		<g>
			<path d="M163.4,897.91c-3.3,0.1-6.4,1.7-8.2,4.4c-5.1,7.4-21.6,32.6-21.6,46.1c0,16.9,13.4,30.6,29.8,30.6
				c16.9,0,30.6-13.8,30.6-30.6c0-13.6-17.1-38.9-22.4-46.3C169.8,899.41,166.7,897.91,163.4,897.91z M163.4,958.91
				c-5.3,0-9.8-4.8-9.8-10.6c0-3.1,4.2-12.1,10-22h0c6,9.9,10.4,18.9,10.4,22C174,954.21,169.3,958.91,163.4,958.91z"/>
			<polygon points="163.4,979.01 163.4,979.01 163.4,979.01 			"/>
			<path d="M326.7,897.91h-0.1c-3.3,0-6.3,1.6-8.2,4.2c-5.2,7.4-22.4,32.7-22.4,46.3c0,16.9,13.7,30.6,30.6,30.6
				c16.4,0,29.8-13.8,29.9-30.6c0-13.5-16.5-38.7-21.6-46.1C333,899.61,330,897.91,326.7,897.91z M326.6,958.91
				c-6,0-10.6-4.6-10.6-10.6c0-3.1,4.4-12.1,10.4-22c5.8,9.9,10,18.9,10,22C336.4,954.01,331.9,958.91,326.6,958.91z"/>
			<path d="M245,938.41c-3.3,0-6.3,1.6-8.2,4.3c-6.8,9.8-22.4,33.7-22.4,46.2c0,16.9,13.7,30.6,30.6,30.6
				c16.9,0,30.6-13.8,30.6-30.6c0-12.5-15.7-36.5-22.4-46.2C251.4,940.01,248.3,938.41,245,938.41z M245,999.51
				c-6,0-10.6-4.7-10.6-10.6c0.2-3.1,4.6-12.1,10.6-22.1c6,10,10.4,18.9,10.6,22.1C255.6,994.81,250.9,999.51,245,999.51z"/>
			<path d="M367,622.81L367,622.81c-10.4,0-20.6,1.3-30.4,3.8c-8.4-20.6-22.6-39-40.7-52.4c-21.2-15.7-46.3-24-72.5-24
				c-44.5,0-85.6,25.2-107.1,64.9c-8.1-2.4-16.7-3.7-24.7-3.7c-50.5,0-91.6,41.2-91.6,91.8s41.1,91.8,91.6,91.8h54.2
				c9.1,41,45.7,71.8,89.4,71.8H367c67.3,0,122-54.9,122-122.3C489,677.31,434.3,622.81,367,622.81z M143.6,774.81h-52
				c-39.5,0-71.6-32.2-71.6-71.7v0c0-39.6,32.1-71.8,71.6-71.8c8.3,0,17.7,1.9,25.9,5.3c5,2.1,10.7-0.2,13-5.1
				c16.8-37.3,53.4-61.4,93-61.4c40.9,0,78.5,25.5,94.2,62.9c-24.6,10.8-45.2,29.6-58,53.9c-7.8-2.1-15.9-3.1-24.5-3.1
				c-24.4,0-47.4,9.4-64.7,26.5C153.2,727.41,143.6,750.31,143.6,774.81z M367,846.61L367,846.61l-131.9,0
				c-39.5,0-71.6-32.2-71.6-71.8c0-39.1,32.1-71,71.6-71c9.4,0,18,1.5,26.1,4.7c5,1.9,10.6-0.4,12.8-5.4
				c15.9-36.7,52.4-60.4,93-60.4c56.3,0,102,45.6,102,101.6C469,800.71,423.2,846.61,367,846.61z"/>
		</g>
	</g>
</g>
<g>
</g>
<g>
</g>
<g>
</g>
<g>
</g>
<g>
</g>
<g>
</g>
<g>
</g>
<g>
</g>
<g>
</g>
<g>
</g>
<g>
</g>
<g>
</g>
<g>
</g>
<g>
</g>
<g>
</g>
</svg>
