<?xml version="1.0" encoding="iso-8859-1"?>
<!-- Generator: Adobe Illustrator 19.0.0, SVG Export Plug-In . SVG Version: 6.00 Build 0)  -->
<svg version="1.1" id="Layer_1" xmlns="http://www.w3.org/2000/svg" xmlns:xlink="http://www.w3.org/1999/xlink" x="0px" y="0px"
	 viewBox="0 0 489 489" style="enable-background:new 0 0 489 489;" xml:space="preserve">
<g transform="translate(0 -540.36)">
	<g>
		<g>
			<path d="M461.95,628.16c-17.2-17.1-40.1-26.6-64.5-26.6c-9.2,0-17.6,1.1-25.1,3.2c-21.1-39.4-62.3-64.4-107.6-64.4
				c-50.3,0-94.8,30.1-113.2,75.7c-9.6-2.4-19.7-3.7-29.9-3.7c-67,0-121.5,55-121.5,122.5c0,67.1,54.5,121.7,121.5,121.7h132.7
				c43.7,0,80.3-30.8,89.3-71.9h53.8c50.4,0,91.4-41.1,91.4-91.5C488.75,668.46,479.25,645.36,461.95,628.16z M254.25,836.66h-132.6
				c-56,0-101.5-45.6-101.5-101.7c0-56.5,45.5-102.5,101.5-102.5c40.5,0,77.2,23.9,93.4,60.9c1.1,2.4,3.1,4.4,5.6,5.3
				c2.5,1,5.3,0.9,7.7-0.2c6.9-3.1,15.9-4.8,26-4.8c39.4,0,71.4,32.1,71.4,71.5C325.65,804.56,293.65,836.66,254.25,836.66z
				 M397.35,764.66L397.35,764.66l-51.7,0c-0.2-50.3-41.1-91.1-91.4-91.1c-9.2,0-17.6,1.1-25.1,3.2c-13.1-24.5-34-43.4-58.8-54.2
				c15.7-37.5,52.6-62.1,94.3-62.1c40.5,0,77.2,23.9,93.4,60.9c1.1,2.4,3.1,4.4,5.6,5.3c2.5,1,5.3,0.9,7.7-0.2
				c6.9-3.1,15.9-4.8,26-4.8c39.4,0,71.4,32.1,71.4,71.5S436.75,764.66,397.35,764.66z"/>
			<path d="M120.05,964.56c-2.5-4.9-8.5-6.9-13.4-4.5l-15.6,7.8v-19.3c0-5.5-4.5-10-10-10s-10,4.5-10,10v19.3l-15.8-7.9
				c-4.9-2.5-10.9-0.5-13.4,4.5c-2.5,4.9-0.5,10.9,4.5,13.4l12.3,6.1l-12.3,6.1c-4.9,2.5-6.9,8.5-4.5,13.4c1.8,3.5,5.3,5.5,8.9,5.5
				c1.5,0,3-0.3,4.5-1.1l15.6-7.8v19.3c0,5.5,4.5,10,10,10s10-4.5,10-10v-19.3l15.6,7.8c1.4,0.7,3,1.1,4.5,1.1c3.7,0,7.2-2,8.9-5.5
				c2.6-4.8,0.6-10.9-4.3-13.3l-12.3-6.1l12.3-6.1C120.45,975.46,122.45,969.46,120.05,964.56z"/>
			<path d="M232.25,923.76c-2.4-5-8.4-7-13.4-4.5l-16.1,8v-19.4c0-5.5-4.5-10-10-10s-10,4.5-10,10v19.4l-16.1-8
				c-5-2.4-10.9-0.4-13.4,4.5c-2.4,5-0.4,10.9,4.5,13.4l12.4,6.1l-12.4,6.1c-5,2.4-7,8.4-4.5,13.4c1.7,3.5,5.3,5.6,9,5.6
				c1.5,0,3-0.3,4.4-1l16.1-8v19.4c0,5.5,4.5,10,10,10s10-4.5,10-10v-19.4l16.1,8c1.4,0.7,2.9,1,4.4,1c3.7,0,7.2-2,9-5.6
				c2.5-5,0.5-11-4.5-13.4l-12.4-6.1l12.4-6.1C232.75,934.76,234.75,928.76,232.25,923.76z"/>
			<path d="M343.85,964.56c-2.5-4.9-8.5-6.9-13.4-4.5l-15.6,7.8v-19.3c0-5.5-4.5-10-10-10s-10,4.5-10,10v19.3l-15.6-7.8
				c-4.9-2.5-10.9-0.5-13.4,4.5c-2.5,4.9-0.5,10.9,4.5,13.4l12.1,6l-12.3,6.1c-4.9,2.5-6.9,8.5-4.5,13.4c1.8,3.5,5.3,5.5,8.9,5.5
				c1.5,0,3-0.3,4.5-1.1l15.6-7.8v19.3c0,5.5,4.5,10,10,10s10-4.5,10-10v-19.3l15.6,7.8c1.4,0.7,3,1.1,4.5,1.1c3.7,0,7.2-2,8.9-5.5
				c2.6-4.8,0.6-10.9-4.3-13.3v0l-12.3-6.1l12.3-6.1C344.25,975.46,346.25,969.46,343.85,964.56z"/>
			<path d="M456.15,923.76c-2.4-5-8.4-7-13.4-4.5l-16.1,8v-19.4c0-5.5-4.5-10-10-10s-10,4.5-10,10v19.4l-16.1-8
				c-5-2.4-10.9-0.4-13.4,4.5s-0.4,10.9,4.5,13.4l12.4,6.1l-12.4,6.1c-5,2.4-7,8.4-4.5,13.4c1.7,3.5,5.3,5.6,9,5.6
				c1.5,0,3-0.3,4.4-1l16.1-8v19.4c0,5.5,4.5,10,10,10s10-4.5,10-10v-19.4l16.1,8c1.4,0.7,2.9,1,4.4,1c3.7,0,7.2-2,9-5.6
				c2.4-5,0.4-11-4.5-13.4l-12.4-6.1l12.4-6.1C456.65,934.76,458.65,928.76,456.15,923.76z"/>
		</g>
	</g>
</g>
<g>
</g>
<g>
</g>
<g>
</g>
<g>
</g>
<g>
</g>
<g>
</g>
<g>
</g>
<g>
</g>
<g>
</g>
<g>
</g>
<g>
</g>
<g>
</g>
<g>
</g>
<g>
</g>
<g>
</g>
</svg>
